<svg width="710" height="660" viewBox="0 0 710 660" fill="none" xmlns="http://www.w3.org/2000/svg">
<path d="M93 343.605H617V343.867H93V343.605Z" fill="#E6E6E6"/>
<path d="M221.212 354.719H257.263V354.981H221.212V354.719Z" fill="#E6E6E6"/>
<path d="M500.63 354.845H520.919V355.107H500.63V354.845Z" fill="#E6E6E6"/>
<path d="M353.952 354.236H395.076V354.499H353.952V354.236Z" fill="#E6E6E6"/>
<path d="M396.123 350.5H414.505V350.762H396.123V350.5Z" fill="#E6E6E6"/>
<path d="M172.061 350.636H227.594V350.899H172.061V350.636Z" fill="#E6E6E6"/>
<path d="M368.624 296.797H570.982C572.567 296.795 574.087 296.162 575.207 295.038C576.327 293.915 576.956 292.392 576.956 290.805V5.94014C576.942 4.36173 576.307 2.85251 575.188 1.74029C574.07 0.628079 572.558 0.00270391 570.982 0H368.624C367.037 0 365.515 0.631364 364.393 1.7552C363.27 2.87903 362.64 4.40328 362.64 5.99262V290.805C362.64 292.394 363.27 293.918 364.393 295.042C365.515 296.166 367.037 296.797 368.624 296.797ZM570.982 0.2099C572.498 0.21268 573.951 0.817625 575.022 1.89195C576.092 2.96628 576.694 4.42221 576.694 5.94014V290.805C576.694 292.323 576.092 293.779 575.022 294.853C573.951 295.927 572.498 296.532 570.982 296.535H368.624C367.107 296.532 365.653 295.928 364.581 294.854C363.508 293.779 362.905 292.324 362.902 290.805V5.94014C362.905 4.42124 363.508 2.96534 364.581 1.89131C365.653 0.817284 367.107 0.212674 368.624 0.2099H570.982Z" fill="#E6E6E6"/>
<path d="M141.931 296.797H344.3C345.886 296.795 347.407 296.162 348.528 295.039C349.65 293.916 350.281 292.393 350.284 290.805V5.94014C350.267 4.36077 349.63 2.85156 348.51 1.73964C347.39 0.627712 345.877 0.00267442 344.3 0H141.931C140.357 0.00546209 138.848 0.632058 137.732 1.74398C136.615 2.85589 135.982 4.36354 135.968 5.94014V290.805C135.968 292.39 136.596 293.911 137.713 295.035C138.831 296.158 140.348 296.792 141.931 296.797ZM344.3 0.2099C345.817 0.212674 347.27 0.817284 348.343 1.89131C349.415 2.96534 350.019 4.42124 350.022 5.94014V290.805C350.019 292.324 349.415 293.779 348.343 294.854C347.27 295.928 345.817 296.532 344.3 296.535H141.931C140.414 296.532 138.961 295.928 137.888 294.854C136.816 293.779 136.212 292.324 136.209 290.805V5.94014C136.212 4.42124 136.816 2.96534 137.888 1.89131C138.961 0.817284 140.414 0.212674 141.931 0.2099H344.3Z" fill="#E6E6E6"/>
<path d="M173.664 19.552H316.486V186.212H173.664V19.552Z" fill="#E0E0E0"/>
<path d="M169.787 19.552H314.673V186.212H169.787V19.552Z" fill="#F5F5F5"/>
<path d="M173.664 186.212H316.486V195.552H173.664V186.212Z" fill="#E0E0E0"/>
<path d="M152.034 186.212H288.431V195.552H152.034V186.212Z" fill="#F5F5F5"/>
<path d="M175.216 179.138V26.6152L309.234 26.6152V179.138H175.216Z" fill="#FAFAFA"/>
<path d="M289.961 179.138L258.06 26.6255H216.245L248.146 179.138H289.961Z" fill="white"/>
<path d="M241.376 179.138L209.485 26.6255H190.6L222.491 179.138H241.376Z" fill="white"/>
<path d="M320.563 19.3106V78.6491H304.843C304.843 78.6491 276.683 60.2514 270.259 22.3961C270.107 21.4946 270.152 20.5707 270.393 19.6886C270.633 18.8066 271.062 17.9875 271.651 17.2884C272.239 16.5893 272.973 16.0269 273.8 15.6403C274.627 15.2537 275.529 15.0521 276.442 15.0497H316.266C316.828 15.0455 317.385 15.1526 317.905 15.3648C318.426 15.5769 318.899 15.8899 319.299 16.2859C319.698 16.6818 320.015 17.1529 320.232 17.6719C320.449 18.191 320.561 18.7479 320.563 19.3106Z" fill="#E0E0E0"/>
<path d="M320.563 173.765V83.4348H304.843C304.843 83.4348 295.83 101.675 286.849 122.644C284.46 128.223 283.491 134.309 284.03 140.355C284.569 146.401 286.598 152.219 289.936 157.286C293.273 162.354 297.815 166.512 303.153 169.388C308.491 172.264 314.459 173.768 320.521 173.765H320.563Z" fill="#E0E0E0"/>
<path d="M305.346 78.6492H319.986C320.855 78.6492 321.558 79.354 321.558 80.2234V81.8606C321.558 82.73 320.855 83.4349 319.986 83.4349H305.346C304.478 83.4349 303.774 82.73 303.774 81.8606V80.2234C303.774 79.354 304.478 78.6492 305.346 78.6492Z" fill="#F5F5F5"/>
<path d="M165.312 19.3107V78.6492H181.032C181.032 78.6492 209.202 60.2515 215.616 22.3962C215.768 21.4956 215.722 20.5726 215.483 19.6912C215.243 18.8099 214.814 17.9914 214.227 17.2925C213.64 16.5935 212.908 16.0309 212.082 15.6437C211.256 15.2564 210.355 15.0537 209.443 15.0498H169.619C169.056 15.0442 168.498 15.1503 167.976 15.3618C167.455 15.5733 166.98 15.8861 166.58 16.2822C166.179 16.6783 165.861 17.1498 165.644 17.6696C165.426 18.1894 165.313 18.7471 165.312 19.3107Z" fill="#E0E0E0"/>
<path d="M165.207 173.786V83.4558H180.927C180.927 83.4558 189.94 101.686 198.932 122.665C201.304 128.246 202.26 134.328 201.713 140.369C201.167 146.41 199.135 152.221 195.799 157.284C192.463 162.346 187.927 166.503 182.597 169.383C177.266 172.262 171.306 173.775 165.249 173.786H165.207Z" fill="#E0E0E0"/>
<path d="M180.56 83.4348H165.92C165.051 83.4348 164.348 82.73 164.348 81.8606V80.2234C164.348 79.3539 165.051 78.6491 165.92 78.6491H180.56C181.428 78.6491 182.132 79.3539 182.132 80.2234V81.8606C182.132 82.73 181.428 83.4348 180.56 83.4348Z" fill="#F5F5F5"/>
<path d="M406.467 92.9746H469.379V161.937H406.467V92.9746Z" fill="#E0E0E0"/>
<path d="M397.622 92.9746H465.973V161.937H397.622V92.9746Z" fill="#FAFAFA"/>
<path d="M404.675 154.895V100.048H458.93V154.895H404.675Z" fill="white"/>
<path d="M446.176 127.461C446.173 124.026 444.808 120.731 442.381 118.303C439.954 115.875 436.664 114.51 433.233 114.51H430.32C426.891 114.513 423.603 115.879 421.178 118.307C418.753 120.735 417.39 124.027 417.387 127.461C417.387 129.162 417.722 130.846 418.372 132.417C419.022 133.989 419.974 135.416 421.175 136.619C422.376 137.821 423.802 138.775 425.371 139.426C426.94 140.077 428.621 140.412 430.32 140.412H433.233C434.932 140.413 436.615 140.079 438.185 139.429C439.755 138.779 441.182 137.825 442.384 136.623C443.586 135.42 444.54 133.992 445.19 132.42C445.841 130.848 446.176 129.163 446.176 127.461Z" fill="#F5F5F5"/>
<path d="M520.332 109.431C529.088 109.431 537.485 105.948 543.675 99.7482C549.866 93.5484 553.344 85.1397 553.344 76.3719C553.344 67.604 549.866 59.1953 543.675 52.9955C537.485 46.7958 529.088 43.3127 520.332 43.3127H514.369V109.431H520.332Z" fill="#E0E0E0"/>
<path d="M514.369 109.431C496.149 109.431 481.378 94.6393 481.378 76.3929C481.378 58.1464 496.149 43.3547 514.369 43.3547C532.59 43.3547 547.36 58.1464 547.36 76.3929C547.36 94.6393 532.59 109.431 514.369 109.431Z" fill="#FAFAFA"/>
<path d="M514.369 101.308C500.629 101.308 489.49 90.153 489.49 76.3928C489.49 62.6326 500.629 51.4778 514.369 51.4778C528.11 51.4778 539.249 62.6326 539.249 76.3928C539.249 90.153 528.11 101.308 514.369 101.308Z" fill="white"/>
<path d="M504.12 85.7124L516.34 77.18L512.462 58.2996L509.004 59.0132L512.41 75.6057L502.097 82.8053L504.12 85.7124Z" fill="#E0E0E0"/>
<path d="M247.748 225.642H292.717V347.32H247.748V225.642Z" fill="#E0E0E0"/>
<path d="M259.758 347.32H247.748V327.17H272.344L259.758 347.32Z" fill="#FAFAFA"/>
<path d="M517.346 225.642H562.315V347.32H517.346V225.642Z" fill="#E0E0E0"/>
<path d="M247.737 225.642H527.826V340.383H247.737V225.642Z" fill="#FAFAFA"/>
<path d="M515.816 347.32H527.826V327.17H503.229L515.816 347.32Z" fill="#FAFAFA"/>
<path d="M257.054 235.507H518.509V277.739H257.054V235.507Z" fill="#F0F0F0"/>
<path d="M257.054 287.95H518.509V330.182H257.054V287.95Z" fill="#F0F0F0"/>
<path d="M295.39 235.507H518.509V277.739H295.39V235.507Z" fill="#E0E0E0"/>
<path d="M449.802 241.206H463.374C463.374 241.206 461.016 249.36 461.016 254.156C461.016 258.953 471.338 277.749 456.582 277.749C441.827 277.749 452.16 258.953 452.16 254.156C452.16 249.36 449.802 241.206 449.802 241.206Z" fill="#FAFAFA"/>
<path d="M503.229 255.374V262.794C503.229 271.022 495.285 277.749 485.581 277.749H476.83C467.126 277.749 459.182 271.022 459.182 262.794V255.374H503.229Z" fill="#F0F0F0"/>
<path d="M295.39 287.95H518.509V330.182H295.39V287.95Z" fill="#E0E0E0"/>
<path d="M393.2 329.426H372.302V294.573H393.2V329.426Z" fill="white"/>
<path d="M375.561 329.961H374.136V295.107H375.561V329.961Z" fill="#E6E6E6"/>
<path d="M374.032 330.224H370.385C370.107 330.224 369.882 329.998 369.882 329.72V295.339C369.882 295.06 370.107 294.835 370.385 294.835H374.032C374.309 294.835 374.535 295.06 374.535 295.339V329.72C374.535 329.998 374.309 330.224 374.032 330.224Z" fill="#EBEBEB"/>
<path d="M374.535 311.186H369.882V302.916H374.535V311.186Z" fill="white"/>
<path d="M374.535 318.847H369.882V313.747H374.535V318.847Z" fill="white"/>
<path d="M394.268 330.224H375.436C375.158 330.224 374.933 329.998 374.933 329.72V295.339C374.933 295.06 375.158 294.835 375.436 294.835H394.268C394.546 294.835 394.772 295.06 394.772 295.339V329.72C394.772 329.998 394.546 330.224 394.268 330.224Z" fill="#EBEBEB"/>
<path d="M403.397 329.332H380.341V290.878H403.397V329.332Z" fill="white"/>
<path d="M383.914 329.94H382.353V291.487H383.914V329.94Z" fill="#E6E6E6"/>
<path d="M382.237 330.234H378.213C377.906 330.234 377.658 329.985 377.658 329.678V291.749C377.658 291.442 377.906 291.193 378.213 291.193H382.237C382.544 291.193 382.793 291.442 382.793 291.749V329.678C382.793 329.985 382.544 330.234 382.237 330.234Z" fill="#F0F0F0"/>
<path d="M382.793 304.962H377.658V303.63H382.793V304.962Z" fill="white"/>
<path d="M382.793 308.814H377.658V307.481H382.793V308.814Z" fill="white"/>
<path d="M382.793 312.666H377.658V311.333H382.793V312.666Z" fill="white"/>
<path d="M404.56 330.234H383.789C383.482 330.234 383.233 329.985 383.233 329.678V291.749C383.233 291.442 383.482 291.193 383.789 291.193H404.56C404.867 291.193 405.115 291.442 405.115 291.749V329.678C405.115 329.985 404.867 330.234 404.56 330.234Z" fill="#F0F0F0"/>
<path d="M431.797 316.832C431.795 318.003 432.14 319.149 432.788 320.124C433.437 321.098 434.359 321.859 435.439 322.308C436.519 322.758 437.708 322.877 438.855 322.649C440.002 322.422 441.056 321.859 441.884 321.032C442.712 320.205 443.276 319.15 443.505 318.001C443.733 316.853 443.617 315.662 443.17 314.58C442.723 313.498 441.965 312.573 440.993 311.922C440.021 311.271 438.878 310.924 437.708 310.924C436.142 310.924 434.641 311.546 433.532 312.654C432.424 313.761 431.8 315.264 431.797 316.832Z" fill="#FAFAFA"/>
<path d="M441.869 319.655C441.869 320.571 442.14 321.466 442.648 322.227C443.155 322.988 443.877 323.581 444.722 323.931C445.566 324.282 446.496 324.373 447.392 324.195C448.289 324.016 449.112 323.575 449.758 322.928C450.405 322.281 450.845 321.456 451.023 320.558C451.202 319.66 451.11 318.73 450.76 317.884C450.41 317.038 449.818 316.316 449.058 315.807C448.298 315.299 447.404 315.027 446.49 315.027C445.265 315.03 444.092 315.518 443.225 316.386C442.359 317.253 441.871 318.429 441.869 319.655Z" fill="#FAFAFA"/>
<path d="M421.684 319.655C421.684 320.826 422.031 321.97 422.68 322.944C423.33 323.917 424.253 324.676 425.333 325.124C426.413 325.572 427.601 325.689 428.748 325.461C429.895 325.232 430.948 324.669 431.774 323.841C432.601 323.013 433.164 321.958 433.392 320.81C433.62 319.662 433.503 318.472 433.056 317.39C432.608 316.308 431.851 315.384 430.879 314.734C429.907 314.083 428.764 313.736 427.595 313.736C426.028 313.739 424.526 314.363 423.418 315.473C422.311 316.582 421.687 318.086 421.684 319.655Z" fill="#FAFAFA"/>
<path d="M412.001 317.924C412.001 319.094 412.347 320.239 412.997 321.212C413.646 322.185 414.569 322.944 415.649 323.392C416.729 323.84 417.918 323.957 419.064 323.729C420.211 323.501 421.264 322.937 422.091 322.109C422.917 321.281 423.48 320.227 423.708 319.078C423.937 317.93 423.819 316.74 423.372 315.658C422.925 314.577 422.167 313.652 421.195 313.002C420.223 312.352 419.08 312.004 417.911 312.004C416.344 312.004 414.84 312.628 413.732 313.738C412.623 314.848 412.001 316.354 412.001 317.924Z" fill="#FAFAFA"/>
<path d="M462.755 318.69C462.755 318.69 461.948 330.234 430.854 330.234C399.76 330.234 398.953 318.69 398.953 318.69H462.755Z" fill="#F5F5F5"/>
<path d="M375.562 266.204C375.562 266.204 374.273 277.749 324.996 277.749C275.719 277.749 274.44 266.204 274.44 266.204H375.562Z" fill="white"/>
<path d="M355 391C242.778 391 151.803 385.681 151.803 379.12C151.803 372.558 242.778 367.24 355 367.24C467.222 367.24 558.197 372.558 558.197 379.12C558.197 385.681 467.222 391 355 391Z" fill="#F5F5F5"/>
<path d="M463.026 221.785C440.86 199.587 440.86 163.598 463.026 141.4C485.192 119.202 521.13 119.202 543.296 141.4C565.463 163.598 565.463 199.587 543.296 221.785C521.13 243.983 485.192 243.983 463.026 221.785Z" fill="#407BFF"/>
<path opacity="0.4" d="M463.026 221.785C440.86 199.587 440.86 163.598 463.026 141.4C485.192 119.202 521.13 119.202 543.296 141.4C565.463 163.598 565.463 199.587 543.296 221.785C521.13 243.983 485.192 243.983 463.026 221.785Z" fill="black"/>
<path opacity="0.2" d="M456.172 189.619C451.746 163.633 469.193 138.974 495.142 134.541C521.091 130.109 545.715 147.581 550.141 173.567C554.567 199.553 537.12 224.212 511.171 228.644C485.222 233.077 460.598 215.605 456.172 189.619Z" fill="black"/>
<path d="M453.894 186.164C452.125 160.858 471.177 138.907 496.447 137.135C521.717 135.364 543.637 154.443 545.406 179.749C547.175 205.055 528.123 227.006 502.853 228.777C477.583 230.549 455.663 211.47 453.894 186.164Z" fill="#407BFF"/>
<path opacity="0.4" d="M453.894 186.164C452.125 160.858 471.177 138.907 496.447 137.135C521.717 135.364 543.637 154.443 545.406 179.749C547.175 205.055 528.123 227.006 502.853 228.777C477.583 230.549 455.663 211.47 453.894 186.164Z" fill="black"/>
<path d="M484.313 177.218L481.326 190.179C481.199 190.674 481.176 191.19 481.259 191.694C481.342 192.198 481.529 192.679 481.808 193.107C482.079 193.544 482.434 193.923 482.854 194.22C483.273 194.518 483.748 194.728 484.25 194.839L495.631 197.473L493.535 206.593C493.412 207.086 493.393 207.599 493.479 208.1C493.566 208.601 493.756 209.078 494.038 209.5C494.309 209.93 494.665 210.3 495.086 210.585C495.506 210.871 495.981 211.066 496.48 211.158C496.98 211.284 497.5 211.308 498.009 211.228C498.519 211.149 499.007 210.968 499.446 210.697C499.882 210.439 500.261 210.093 500.557 209.681C500.853 209.269 501.06 208.8 501.164 208.304L503.26 199.079L514.547 201.692C515.034 201.81 515.539 201.827 516.032 201.744C516.526 201.661 516.998 201.479 517.419 201.209C517.857 200.952 518.237 200.606 518.534 200.194C518.832 199.783 519.041 199.313 519.148 198.816C519.267 198.326 519.286 197.816 519.203 197.319C519.12 196.821 518.938 196.345 518.666 195.92C518.407 195.485 518.061 195.109 517.65 194.814C517.239 194.52 516.771 194.314 516.277 194.209L489.867 188.111L491.104 182.728L517.44 188.804C517.927 188.929 518.435 188.953 518.932 188.875C519.429 188.798 519.906 188.62 520.332 188.353C520.77 188.09 521.148 187.739 521.442 187.321C521.736 186.904 521.94 186.429 522.041 185.928L525.017 173.02C525.246 172.027 525.072 170.985 524.534 170.121C523.995 169.257 523.136 168.642 522.145 168.412L510.911 165.82L513.007 156.69C513.128 156.207 513.152 155.704 513.076 155.212C513.001 154.72 512.827 154.248 512.567 153.824C512.29 153.365 511.919 152.97 511.478 152.666C511.037 152.362 510.536 152.156 510.01 152.061C509.525 151.943 509.021 151.925 508.529 152.008C508.038 152.091 507.568 152.274 507.148 152.544C506.718 152.809 506.346 153.159 506.054 153.572C505.762 153.985 505.557 154.453 505.451 154.947L503.355 164.067L491.827 161.423C491.328 161.302 490.81 161.283 490.304 161.368C489.798 161.453 489.314 161.639 488.882 161.916C488.445 162.168 488.064 162.508 487.765 162.914C487.465 163.32 487.253 163.785 487.142 164.277C486.921 165.292 487.106 166.354 487.656 167.234C488.206 168.115 489.079 168.745 490.087 168.99L516.497 175.087L515.344 180.44L489.029 174.363C488.53 174.242 488.012 174.223 487.506 174.308C487 174.393 486.516 174.579 486.084 174.856C485.639 175.103 485.252 175.441 484.947 175.848C484.642 176.255 484.426 176.722 484.313 177.218Z" fill="#407BFF"/>
<g opacity="0.7">
<path opacity="0.7" d="M484.313 177.218L481.326 190.179C481.199 190.674 481.176 191.19 481.259 191.694C481.342 192.198 481.529 192.679 481.808 193.107C482.079 193.544 482.434 193.923 482.854 194.22C483.273 194.518 483.748 194.728 484.25 194.839L495.631 197.473L493.535 206.593C493.412 207.086 493.393 207.599 493.479 208.1C493.566 208.601 493.756 209.078 494.038 209.5C494.309 209.93 494.665 210.3 495.086 210.585C495.506 210.871 495.981 211.066 496.48 211.158C496.98 211.284 497.5 211.308 498.009 211.228C498.519 211.149 499.007 210.968 499.446 210.697C499.882 210.439 500.261 210.093 500.557 209.681C500.853 209.269 501.06 208.8 501.164 208.304L503.26 199.079L514.547 201.692C515.034 201.81 515.539 201.827 516.032 201.744C516.526 201.661 516.998 201.479 517.419 201.209C517.857 200.952 518.237 200.606 518.534 200.194C518.832 199.783 519.041 199.313 519.148 198.816C519.267 198.326 519.286 197.816 519.203 197.319C519.12 196.821 518.938 196.345 518.666 195.92C518.407 195.485 518.061 195.109 517.65 194.814C517.239 194.52 516.771 194.314 516.277 194.209L489.867 188.111L491.104 182.728L517.44 188.804C517.927 188.929 518.435 188.953 518.932 188.875C519.429 188.798 519.906 188.62 520.332 188.353C520.77 188.09 521.148 187.739 521.442 187.321C521.736 186.904 521.94 186.429 522.041 185.928L525.017 173.02C525.246 172.027 525.072 170.985 524.534 170.121C523.995 169.257 523.136 168.642 522.145 168.412L510.911 165.82L513.007 156.69C513.128 156.207 513.152 155.704 513.076 155.212C513.001 154.72 512.827 154.248 512.567 153.824C512.29 153.365 511.919 152.97 511.478 152.666C511.037 152.362 510.536 152.156 510.01 152.061C509.525 151.943 509.021 151.925 508.529 152.008C508.038 152.091 507.568 152.274 507.148 152.544C506.718 152.809 506.346 153.159 506.054 153.572C505.762 153.985 505.557 154.453 505.451 154.947L503.355 164.067L491.827 161.423C491.328 161.302 490.81 161.283 490.304 161.368C489.798 161.453 489.314 161.639 488.882 161.916C488.445 162.168 488.064 162.508 487.765 162.914C487.465 163.32 487.253 163.785 487.142 164.277C486.921 165.292 487.106 166.354 487.656 167.234C488.206 168.115 489.079 168.745 490.087 168.99L516.497 175.087L515.344 180.44L489.029 174.363C488.53 174.242 488.012 174.223 487.506 174.308C487 174.393 486.516 174.579 486.084 174.856C485.639 175.103 485.252 175.441 484.947 175.848C484.642 176.255 484.426 176.722 484.313 177.218Z" fill="white"/>
</g>
<path d="M382.04 136.39C367.918 119.656 370.017 94.6254 386.728 80.4837C403.438 66.3419 428.433 68.4438 442.554 85.1783C456.676 101.913 454.577 126.943 437.866 141.085C421.156 155.226 396.161 153.125 382.04 136.39Z" fill="#407BFF"/>
<path opacity="0.4" d="M382.04 136.39C367.918 119.656 370.017 94.6254 386.728 80.4837C403.438 66.3419 428.433 68.4438 442.554 85.1783C456.676 101.913 454.577 126.943 437.866 141.085C421.156 155.226 396.161 153.125 382.04 136.39Z" fill="black"/>
<path opacity="0.2" d="M386.657 131.978C374.952 117.799 376.941 96.802 391.101 85.0802C405.26 73.3583 426.227 75.3505 437.932 89.5299C449.637 103.709 447.648 124.706 433.489 136.428C419.329 148.15 398.362 146.158 386.657 131.978Z" fill="black"/>
<path d="M385.653 132.327C374.944 118.294 377.621 98.2254 391.634 87.501C405.646 76.7765 425.686 79.4579 436.395 93.4899C447.104 107.522 444.427 127.591 430.415 138.316C416.403 149.04 396.362 146.359 385.653 132.327Z" fill="#407BFF"/>
<path opacity="0.4" d="M385.653 132.327C374.944 118.294 377.621 98.2254 391.634 87.501C405.646 76.7765 425.686 79.4579 436.395 93.4899C447.104 107.522 444.427 127.591 430.415 138.316C416.403 149.04 396.362 146.359 385.653 132.327Z" fill="black"/>
<path d="M399.205 114.038L401.458 123.043C401.54 123.385 401.692 123.707 401.905 123.987C402.118 124.267 402.387 124.499 402.694 124.669C403.005 124.859 403.351 124.983 403.711 125.036C404.072 125.088 404.439 125.067 404.79 124.974L412.64 122.99L414.233 129.287C414.314 129.631 414.466 129.955 414.679 130.237C414.892 130.518 415.161 130.753 415.47 130.924C415.767 131.109 416.098 131.232 416.444 131.284C416.79 131.336 417.143 131.317 417.482 131.229C417.83 131.147 418.159 130.996 418.449 130.785C418.739 130.574 418.983 130.308 419.169 130.001C419.358 129.701 419.484 129.366 419.538 129.016C419.592 128.665 419.573 128.308 419.483 127.965L417.88 121.563L425.74 119.642C426.081 119.561 426.401 119.411 426.682 119.202C426.963 118.992 427.199 118.728 427.375 118.425C427.564 118.127 427.69 117.794 427.744 117.445C427.798 117.097 427.78 116.74 427.689 116.399C427.611 116.054 427.463 115.729 427.253 115.444C427.044 115.159 426.779 114.919 426.474 114.741C426.172 114.557 425.837 114.436 425.487 114.386C425.138 114.335 424.782 114.356 424.44 114.447L406.1 119.055L405.157 115.318L423.445 110.722C423.787 110.645 424.11 110.498 424.393 110.29C424.677 110.083 424.914 109.819 425.09 109.515C425.28 109.215 425.404 108.879 425.455 108.528C425.506 108.177 425.481 107.82 425.384 107.479L423.141 98.5055C423.056 98.1635 422.905 97.8417 422.696 97.5586C422.486 97.2754 422.223 97.0367 421.921 96.8562C421.619 96.6756 421.284 96.5568 420.936 96.5067C420.587 96.4565 420.233 96.476 419.892 96.564L412.116 98.516L410.523 92.2191C410.446 91.8636 410.296 91.528 410.083 91.2334C409.87 90.9387 409.599 90.6914 409.286 90.5071C408.973 90.3227 408.625 90.2053 408.264 90.1621C407.904 90.119 407.538 90.1511 407.19 90.2565C406.853 90.3349 406.535 90.4826 406.257 90.6903C405.979 90.8981 405.747 91.1613 405.576 91.4634C405.391 91.7627 405.268 92.0966 405.216 92.4449C405.164 92.7931 405.183 93.1484 405.273 93.489L406.865 99.7859L398.901 101.79C398.551 101.874 398.222 102.028 397.934 102.243C397.646 102.457 397.404 102.728 397.224 103.039C397.033 103.334 396.905 103.665 396.847 104.012C396.789 104.359 396.803 104.713 396.889 105.054C396.976 105.404 397.132 105.733 397.348 106.021C397.564 106.309 397.835 106.552 398.146 106.734C398.456 106.926 398.801 107.054 399.162 107.108C399.522 107.162 399.89 107.142 400.242 107.048L418.593 102.441L419.515 106.156L401.238 110.743C400.888 110.826 400.559 110.98 400.271 111.195C399.983 111.409 399.741 111.68 399.561 111.992C399.359 112.287 399.223 112.623 399.161 112.976C399.1 113.329 399.115 113.691 399.205 114.038Z" fill="#407BFF"/>
<g opacity="0.7">
<path opacity="0.7" d="M399.205 114.038L401.458 123.043C401.54 123.385 401.692 123.707 401.905 123.987C402.118 124.267 402.387 124.499 402.694 124.669C403.005 124.859 403.351 124.983 403.711 125.036C404.072 125.088 404.439 125.067 404.79 124.974L412.64 122.99L414.233 129.287C414.314 129.631 414.466 129.955 414.679 130.237C414.892 130.518 415.161 130.753 415.47 130.924C415.767 131.109 416.098 131.232 416.444 131.284C416.79 131.336 417.143 131.317 417.482 131.229C417.83 131.147 418.159 130.996 418.449 130.785C418.739 130.574 418.983 130.308 419.169 130.001C419.358 129.701 419.484 129.366 419.538 129.016C419.592 128.665 419.573 128.308 419.483 127.965L417.88 121.563L425.74 119.642C426.081 119.561 426.401 119.411 426.682 119.202C426.963 118.992 427.199 118.728 427.375 118.425C427.564 118.127 427.69 117.794 427.744 117.445C427.798 117.097 427.78 116.74 427.689 116.399C427.611 116.054 427.463 115.729 427.253 115.444C427.044 115.159 426.779 114.919 426.474 114.741C426.172 114.557 425.837 114.436 425.487 114.386C425.138 114.335 424.782 114.356 424.44 114.447L406.1 119.055L405.157 115.318L423.445 110.722C423.787 110.645 424.11 110.498 424.393 110.29C424.677 110.083 424.914 109.819 425.09 109.515C425.28 109.215 425.404 108.879 425.455 108.528C425.506 108.177 425.481 107.82 425.384 107.479L423.141 98.5055C423.056 98.1635 422.905 97.8417 422.696 97.5586C422.486 97.2754 422.223 97.0367 421.921 96.8562C421.619 96.6756 421.284 96.5568 420.936 96.5067C420.587 96.4565 420.233 96.476 419.892 96.564L412.116 98.516L410.523 92.2191C410.446 91.8636 410.296 91.528 410.083 91.2334C409.87 90.9387 409.599 90.6914 409.286 90.5071C408.973 90.3227 408.625 90.2053 408.264 90.1621C407.904 90.119 407.538 90.1511 407.19 90.2565C406.853 90.3349 406.535 90.4826 406.257 90.6903C405.979 90.8981 405.747 91.1613 405.576 91.4634C405.391 91.7627 405.268 92.0966 405.216 92.4449C405.164 92.7931 405.183 93.1484 405.273 93.489L406.865 99.7859L398.901 101.79C398.551 101.874 398.222 102.028 397.934 102.243C397.646 102.457 397.404 102.728 397.224 103.039C397.033 103.334 396.905 103.665 396.847 104.012C396.789 104.359 396.803 104.713 396.889 105.054C396.976 105.404 397.132 105.733 397.348 106.021C397.564 106.309 397.835 106.552 398.146 106.734C398.456 106.926 398.801 107.054 399.162 107.108C399.522 107.162 399.89 107.142 400.242 107.048L418.593 102.441L419.515 106.156L401.238 110.743C400.888 110.826 400.559 110.98 400.271 111.195C399.983 111.409 399.741 111.68 399.561 111.992C399.359 112.287 399.223 112.623 399.161 112.976C399.1 113.329 399.115 113.691 399.205 114.038Z" fill="white"/>
</g>
<path d="M508.784 350.5H509.832V362.349H508.784V350.5Z" fill="#407BFF"/>
<path opacity="0.1" d="M508.784 350.5H509.832V362.349H508.784V350.5Z" fill="black"/>
<path d="M219.598 186.223H490.391C499.102 186.223 506.164 193.294 506.164 202.018V360.754C506.164 369.477 499.102 376.549 490.391 376.549H219.598C210.888 376.549 203.826 369.477 203.826 360.754V202.018C203.826 193.294 210.888 186.223 219.598 186.223Z" fill="#5181EF"/>
<path opacity="0.2" d="M252.768 252.498C241.962 252.498 233.201 243.726 233.201 232.904C233.201 222.083 241.962 213.31 252.768 213.31C263.574 213.31 272.334 222.083 272.334 232.904C272.334 243.726 263.574 252.498 252.768 252.498Z" fill="black"/>
<path d="M278.024 252.498C267.218 252.498 258.458 243.726 258.458 232.904C258.458 222.083 267.218 213.31 278.024 213.31C288.83 213.31 297.591 222.083 297.591 232.904C297.591 243.726 288.83 252.498 278.024 252.498Z" fill="#407BFF"/>
<path d="M423.392 252.498H469.997C473.748 252.498 476.788 255.543 476.788 259.299V289.808C476.788 293.564 473.748 296.609 469.997 296.609H423.392C419.642 296.609 416.601 293.564 416.601 289.808V259.299C416.601 255.543 419.642 252.498 423.392 252.498Z" fill="#407BFF"/>
<path opacity="0.3" d="M423.392 252.498H469.997C473.748 252.498 476.788 255.543 476.788 259.299V289.808C476.788 293.564 473.748 296.609 469.997 296.609H423.392C419.642 296.609 416.601 293.564 416.601 289.808V259.299C416.601 255.543 419.642 252.498 423.392 252.498Z" fill="white"/>
<path d="M391.146 208.503H471.978C474.634 208.503 476.788 210.658 476.788 213.315C476.788 215.973 474.634 218.127 471.978 218.127H391.146C388.489 218.127 386.335 215.973 386.335 213.315C386.335 210.658 388.489 208.503 391.146 208.503Z" fill="#407BFF"/>
<path opacity="0.3" d="M391.146 208.503H471.978C474.634 208.503 476.788 210.658 476.788 213.315C476.788 215.973 474.634 218.127 471.978 218.127H391.146C388.489 218.127 386.335 215.973 386.335 213.315C386.335 210.658 388.489 208.503 391.146 208.503Z" fill="white"/>
<path d="M433.38 318.501H469.735C473.63 318.501 476.788 321.663 476.788 325.564V332.165C476.788 336.066 473.63 339.228 469.735 339.228H433.38C429.485 339.228 426.327 336.066 426.327 332.165V325.564C426.327 321.663 429.485 318.501 433.38 318.501Z" fill="#407BFF"/>
<path opacity="0.3" d="M433.38 318.501H469.735C473.63 318.501 476.788 321.663 476.788 325.564V332.165C476.788 336.066 473.63 339.228 469.735 339.228H433.38C429.485 339.228 426.327 336.066 426.327 332.165V325.564C426.327 321.663 429.485 318.501 433.38 318.501Z" fill="white"/>
<path d="M369.012 318.501H405.367C409.262 318.501 412.42 321.663 412.42 325.564V332.165C412.42 336.066 409.262 339.228 405.367 339.228H369.012C365.116 339.228 361.959 336.066 361.959 332.165V325.564C361.959 321.663 365.116 318.501 369.012 318.501Z" fill="#407BFF"/>
<path opacity="0.3" d="M369.012 318.501H405.367C409.262 318.501 412.42 321.663 412.42 325.564V332.165C412.42 336.066 409.262 339.228 405.367 339.228H369.012C365.116 339.228 361.959 336.066 361.959 332.165V325.564C361.959 321.663 365.116 318.501 369.012 318.501Z" fill="white"/>
<path d="M304.633 318.501H340.988C344.884 318.501 348.041 321.663 348.041 325.564V332.165C348.041 336.066 344.884 339.228 340.988 339.228H304.633C300.738 339.228 297.58 336.066 297.58 332.165V325.564C297.58 321.663 300.738 318.501 304.633 318.501Z" fill="#407BFF"/>
<path opacity="0.3" d="M304.633 318.501H340.988C344.884 318.501 348.041 321.663 348.041 325.564V332.165C348.041 336.066 344.884 339.228 340.988 339.228H304.633C300.738 339.228 297.58 336.066 297.58 332.165V325.564C297.58 321.663 300.738 318.501 304.633 318.501Z" fill="white"/>
<path d="M240.265 318.501H276.62C280.515 318.501 283.673 321.663 283.673 325.564V332.165C283.673 336.066 280.515 339.228 276.62 339.228H240.265C236.37 339.228 233.212 336.066 233.212 332.165V325.564C233.212 321.663 236.37 318.501 240.265 318.501Z" fill="#407BFF"/>
<path opacity="0.3" d="M240.265 318.501H276.62C280.515 318.501 283.673 321.663 283.673 325.564V332.165C283.673 336.066 280.515 339.228 276.62 339.228H240.265C236.37 339.228 233.212 336.066 233.212 332.165V325.564C233.212 321.663 236.37 318.501 240.265 318.501Z" fill="white"/>
<path d="M309.936 117.355C312.42 124.376 315.176 131.166 318.1 137.956C321.059 144.861 324.455 151.571 328.266 158.043C328.779 158.873 329.314 159.702 329.869 160.531L330.278 161.15L330.833 161.916C331.21 162.399 331.567 162.819 331.881 163.228C333.202 164.702 334.601 166.104 336.073 167.426C338.871 170.018 341.722 172.369 344.604 174.688C350.389 179.285 356.3 183.588 362.42 187.671L366.077 183.126L350.672 167.919C348.125 165.39 345.599 162.84 343.241 160.289C342.078 159.019 340.946 157.718 340.014 156.522C339.783 156.228 339.584 155.934 339.406 155.682L339.186 155.325L338.882 154.78C338.473 154.055 338.043 153.352 337.645 152.607C334.438 146.572 331.609 140.013 328.884 133.359C326.159 126.706 323.539 119.999 321.024 113.345L309.936 117.355Z" fill="#E4897B"/>
<path d="M306.991 112.296C304.612 119.265 318.593 139.761 318.593 139.761L331.944 132.321C329.669 125.925 326.98 119.685 323.895 113.639C319.221 104.782 309.601 104.645 306.991 112.296Z" fill="#407BFF"/>
<path opacity="0.7" d="M306.991 112.296C304.612 119.265 318.593 139.761 318.593 139.761L331.944 132.321C329.669 125.925 326.98 119.685 323.895 113.639C319.221 104.782 309.601 104.645 306.991 112.296Z" fill="white"/>
<path opacity="0.31" d="M306.792 113.167C309.79 111.729 313.237 112.936 316.874 118.687C320.511 124.439 323.602 134.042 323.938 136.781L318.582 139.751C318.582 139.751 305.681 120.818 306.792 113.167Z" fill="#407BFF"/>
<path d="M316.035 106.965C316.035 106.965 326.012 130.463 318.823 174.216H277.27C276.756 167.825 279.691 136.665 272.491 106.566C277.066 105.674 281.694 105.085 286.346 104.803C292.227 104.467 298.123 104.467 304.004 104.803C308.064 105.215 312.086 105.938 316.035 106.965Z" fill="#407BFF"/>
<path opacity="0.7" d="M316.035 106.965C316.035 106.965 326.012 130.463 318.823 174.216H277.27C276.756 167.825 279.691 136.665 272.491 106.566C277.066 105.674 281.694 105.085 286.346 104.803C292.227 104.467 298.123 104.467 304.004 104.803C308.064 105.215 312.086 105.938 316.035 106.965Z" fill="white"/>
<path d="M262.556 360.638L268.708 366.159L280.435 353.932L274.273 348.412L262.556 360.638Z" fill="#E4897B"/>
<path d="M283.652 372.12H291.418L292.424 354.11H284.658L283.652 372.12Z" fill="#E4897B"/>
<path d="M280.424 353.932L274.388 360.239L268.226 354.709L274.262 348.412L280.424 353.932Z" fill="#CE6F64"/>
<path d="M284.658 354.11H292.424L291.9 363.398H284.134L284.658 354.11Z" fill="#CE6F64"/>
<path d="M318.823 174.216C318.823 174.216 327.008 230.952 329.796 261.828C332.038 286.607 278.538 360.481 278.538 360.481L268.194 350.731C268.194 350.731 307.264 284.497 304.256 256.917C301.342 230.207 291.47 174.185 291.47 174.185L318.823 174.216Z" fill="#305CBF"/>
<path opacity="0.2" d="M304.256 256.948C302.757 243.189 299.404 221.633 296.522 203.98C298.031 201.02 302.265 195.028 302.265 195.028C306.058 208.157 314.306 257.651 302.537 324.494C290.276 344.287 278.538 360.512 278.538 360.512L276.935 334.989C288.263 313.642 306.341 276.017 304.256 256.948Z" fill="black"/>
<path d="M304.046 174.216C304.046 174.216 304.78 233.67 303.522 255.951C302.149 280.341 295.233 361.163 295.233 361.163H281.001C281.001 361.163 281.431 282.314 280.592 258.176C279.659 231.939 277.249 174.216 277.249 174.216H304.046Z" fill="#305CBF"/>
<path d="M291.827 371.228H283.097C282.951 371.222 282.809 371.274 282.701 371.372C282.594 371.47 282.529 371.607 282.52 371.752L282.091 378.669C282.089 378.849 282.124 379.028 282.191 379.196C282.259 379.363 282.359 379.515 282.485 379.644C282.612 379.773 282.763 379.875 282.929 379.945C283.095 380.016 283.273 380.053 283.453 380.054C286.492 380.002 287.949 379.823 291.785 379.823C294.143 379.823 304.183 380.075 307.442 380.075C310.701 380.075 310.586 376.843 309.234 376.549C303.04 375.237 295.358 373.4 293.158 371.7C292.778 371.4 292.31 371.234 291.827 371.228Z" fill="#263238"/>
<path d="M270.406 363.944L262.923 358.896C262.801 358.799 262.649 358.746 262.493 358.746C262.337 358.746 262.186 358.799 262.064 358.896L256.341 364.679C256.23 364.806 256.147 364.956 256.1 365.118C256.053 365.281 256.042 365.452 256.068 365.619C256.094 365.786 256.156 365.946 256.251 366.086C256.345 366.226 256.469 366.344 256.614 366.431C261.393 370.115 264.841 372.896 267.566 375.961C270.71 379.54 272.407 380.054 279.743 380.054C283.139 380.054 285.057 377.189 283.673 376.748C271.454 372.875 274.723 371.186 271.747 365.508C271.437 364.883 270.976 364.346 270.406 363.944Z" fill="#263238"/>
<path d="M364.317 182.15L372.418 182.434L370.72 188.794C370.72 188.794 362.252 189.549 361.498 186.989L364.317 182.15Z" fill="#E4897B"/>
<path d="M381.158 186.223L375.478 189.539L370.72 188.794L372.418 182.434L381.158 186.223Z" fill="#E4897B"/>
<path opacity="0.31" d="M281.776 113.996C282.636 118.95 281.493 130.788 277.249 144.495C276.917 132.751 275.553 121.06 273.172 109.557V109.494C275.897 109.221 280.948 109.347 281.776 113.996Z" fill="#407BFF"/>
<path d="M287.404 84.8833C288.714 90.5716 290.192 101.004 286.356 104.824C286.356 104.824 288.012 109.536 298.576 109.536C310.188 109.536 304.015 104.824 304.015 104.824C297.622 103.312 297.622 98.6002 298.576 94.1818L287.404 84.8833Z" fill="#E4897B"/>
<path d="M298.869 109.515L302.013 112.863L300.473 116.095L297.968 116.211L295.83 113.125L298.869 109.515Z" fill="#407BFF"/>
<path d="M291.953 88.6719L298.565 94.1502C298.327 95.1849 298.18 96.2384 298.125 97.2987C295.694 96.9524 292.277 94.2867 291.932 91.7469C291.747 90.7296 291.754 89.6866 291.953 88.6719Z" fill="#CE6F64"/>
<path d="M301.185 65.5935C305.157 66.9474 308.333 77.4948 303.7 80.2865C299.068 83.0781 293.64 63.0223 301.185 65.5935Z" fill="#263238"/>
<path d="M284.92 78.922C287.289 86.2685 288.295 90.7078 293.074 93.7199C294.615 94.7122 296.399 95.2634 298.231 95.314C300.063 95.3646 301.873 94.9127 303.467 94.007C305.061 93.1014 306.378 91.7766 307.274 90.1758C308.17 88.5751 308.613 86.7594 308.553 84.9251C308.458 77.862 304.602 66.9892 296.48 65.6249C294.729 65.2865 292.921 65.4146 291.235 65.9963C289.55 66.5781 288.047 67.593 286.876 68.9396C285.705 70.2861 284.909 71.917 284.565 73.669C284.222 75.4209 284.345 77.2324 284.92 78.922Z" fill="#E4897B"/>
<path d="M279.052 66.643C281.42 72.3732 275.908 67.5875 277.333 74.3883C278.255 78.8172 286.241 89.4275 289.322 88.462C292.403 87.4965 292.372 79.9716 288.442 74.6507C286.178 71.5966 291.072 68.1333 302.066 68.5006C313.059 68.8679 319.703 62.6759 305.094 58.1316C305.094 58.1316 310.481 61.2801 307.285 62.3296C302.757 64.0193 274.304 55.1615 279.052 66.643Z" fill="#263238"/>
<path d="M281.148 69.2665C281.263 69.2665 278.685 68.6263 277.312 64.019C277.312 64.0925 277.763 70.8827 281.148 69.2665Z" fill="#263238"/>
<path d="M301.72 59.1497C308.479 61.2487 305.681 63.61 302.883 64.1977L296.469 61.6789C306.216 62.9698 301.72 59.1497 301.72 59.1497Z" fill="#263238"/>
<path d="M283.621 87.8954C285.026 89.2633 286.901 90.0406 288.861 90.0678C291.449 90.0678 292.005 87.612 290.611 85.555C289.374 83.7079 286.545 81.483 284.26 82.48C281.975 83.477 281.902 86.2057 283.621 87.8954Z" fill="#E4897B"/>
<path d="M296.857 78.5127C297.014 79.1214 297.465 79.5622 297.905 79.4572C298.345 79.3523 298.503 78.7961 298.345 78.1873C298.188 77.5786 297.737 77.1378 297.297 77.2533C296.857 77.3687 296.7 77.904 296.857 78.5127Z" fill="#263238"/>
<path d="M303.774 76.9909C303.931 77.5997 304.382 78.0404 304.822 77.9355C305.262 77.8305 305.419 77.2848 305.262 76.6761C305.105 76.0674 304.665 75.6266 304.214 75.7316C303.763 75.8365 303.648 76.3822 303.774 76.9909Z" fill="#263238"/>
<path d="M301.657 77.7781C302.848 79.4773 304.258 81.0122 305.849 82.3434C305.499 82.7329 305.068 83.0408 304.586 83.2457C304.105 83.4506 303.584 83.5474 303.061 83.5293L301.657 77.7781Z" fill="#DE5753"/>
<path d="M300.504 85.7439C300.938 85.7434 301.37 85.6941 301.793 85.597C301.84 85.5846 301.88 85.5549 301.905 85.5139C301.93 85.4729 301.939 85.4238 301.929 85.3766C301.917 85.33 301.887 85.29 301.846 85.2646C301.805 85.2393 301.756 85.2305 301.709 85.2402C300.937 85.4123 300.137 85.4073 299.367 85.2255C298.598 85.0438 297.879 84.69 297.266 84.1907C297.231 84.1567 297.184 84.1377 297.135 84.1377C297.086 84.1377 297.039 84.1567 297.004 84.1907C296.97 84.2259 296.951 84.2729 296.951 84.3219C296.951 84.3708 296.97 84.4178 297.004 84.453C297.977 85.292 299.22 85.7504 300.504 85.7439Z" fill="#263238"/>
<path d="M294.111 76.7602C294.183 76.7614 294.253 76.741 294.313 76.7017C294.373 76.6624 294.419 76.606 294.447 76.5398C294.619 76.1188 294.889 75.7454 295.236 75.4513C295.583 75.1572 295.995 74.951 296.438 74.8501C296.486 74.8437 296.533 74.8277 296.575 74.803C296.617 74.7783 296.654 74.7454 296.683 74.7064C296.712 74.6673 296.733 74.6227 296.745 74.5753C296.757 74.5279 296.76 74.4786 296.752 74.4303C296.737 74.3337 296.684 74.2468 296.606 74.1881C296.528 74.1294 296.43 74.1033 296.333 74.1155C295.768 74.2307 295.24 74.4821 294.795 74.8478C294.349 75.2136 293.999 75.6827 293.776 76.2144C293.755 76.2583 293.744 76.306 293.742 76.3545C293.74 76.403 293.749 76.4513 293.766 76.4965C293.784 76.5417 293.811 76.5828 293.845 76.6173C293.879 76.6518 293.92 76.679 293.964 76.6972C294.008 76.7287 294.058 76.7502 294.111 76.7602Z" fill="#263238"/>
<path d="M306.111 73.979C306.195 73.9784 306.277 73.9488 306.341 73.8951C306.417 73.8317 306.464 73.7414 306.474 73.6434C306.484 73.5454 306.455 73.4474 306.394 73.3703C306.025 72.9103 305.555 72.5414 305.021 72.2921C304.486 72.0428 303.902 71.9198 303.313 71.9325C303.264 71.9365 303.218 71.95 303.175 71.9722C303.132 71.9944 303.093 72.025 303.062 72.062C303.031 72.0991 303.007 72.142 302.993 72.1882C302.978 72.2344 302.973 72.2831 302.977 72.3313C302.98 72.3802 302.992 72.428 303.014 72.4717C303.036 72.5155 303.066 72.5543 303.104 72.5858C303.141 72.6173 303.184 72.6408 303.231 72.6548C303.278 72.6688 303.327 72.673 303.376 72.6672C303.847 72.6622 304.313 72.7656 304.738 72.9694C305.163 73.1732 305.536 73.4719 305.828 73.8426C305.862 73.8855 305.905 73.9201 305.954 73.9437C306.003 73.9674 306.056 73.9795 306.111 73.979Z" fill="#263238"/>
<path d="M270.479 111.929C269.662 113.199 268.98 114.322 268.289 115.539C267.597 116.756 266.937 117.932 266.287 119.149C265.008 121.574 263.803 124.05 262.703 126.58C260.395 131.758 258.662 137.174 257.536 142.731L257.431 143.267L257.379 143.529L257.306 143.97C257.217 144.557 257.171 145.15 257.169 145.743C257.18 146.738 257.285 147.729 257.484 148.703C257.839 150.31 258.351 151.878 259.014 153.384C260.191 156.023 261.593 158.554 263.206 160.951C266.254 165.507 269.721 169.769 273.56 173.681L278.119 170.018C275.583 165.589 273.057 160.993 270.94 156.49C269.899 154.337 269.01 152.114 268.278 149.837C267.979 148.887 267.776 147.909 267.67 146.919C267.634 146.595 267.634 146.267 267.67 145.943C267.67 145.848 267.67 145.764 267.733 145.754C267.796 145.743 267.733 145.754 267.733 145.701L267.796 145.492L267.922 145.061C268.584 142.746 269.371 140.469 270.28 138.24C271.202 135.962 272.229 133.695 273.309 131.439C274.388 129.182 275.551 126.958 276.746 124.733C277.333 123.62 277.951 122.518 278.57 121.427L280.414 118.278L270.479 111.929Z" fill="#E4897B"/>
<path d="M294.573 372.571C295.096 372.623 295.619 372.477 296.04 372.162C296.158 372.03 296.241 371.87 296.282 371.698C296.322 371.525 296.318 371.346 296.27 371.175C296.247 371.06 296.196 370.953 296.121 370.863C296.046 370.773 295.949 370.704 295.841 370.661C294.887 370.283 292.697 371.794 292.445 371.962C292.414 371.981 292.39 372.01 292.377 372.044C292.363 372.078 292.362 372.116 292.372 372.151C292.377 372.186 292.393 372.219 292.417 372.245C292.442 372.272 292.473 372.29 292.508 372.298C293.185 372.461 293.877 372.552 294.573 372.571ZM295.484 370.965C295.557 370.953 295.631 370.953 295.704 370.965C295.758 370.984 295.805 371.018 295.84 371.063C295.875 371.107 295.897 371.161 295.903 371.217C295.942 371.327 295.95 371.445 295.928 371.559C295.906 371.674 295.854 371.78 295.778 371.868C295.421 372.224 294.405 372.266 293.011 371.994C293.752 371.479 294.596 371.132 295.484 370.976V370.965Z" fill="white"/>
<path d="M292.55 372.309H292.644C293.42 371.847 294.572 370.21 294.394 369.37C294.363 369.216 294.281 369.077 294.161 368.976C294.041 368.875 293.891 368.818 293.734 368.814C293.596 368.796 293.455 368.809 293.323 368.853C293.19 368.896 293.07 368.969 292.969 369.066C292.183 369.832 292.361 372.067 292.361 372.162C292.365 372.193 292.376 372.223 292.395 372.249C292.413 372.274 292.438 372.295 292.466 372.309H292.55ZM293.598 369.16H293.682C293.944 369.16 294.006 369.318 294.027 369.423C294.143 369.979 293.378 371.207 292.707 371.773C292.61 370.922 292.786 370.062 293.21 369.318C293.263 369.266 293.325 369.226 293.393 369.199C293.462 369.172 293.535 369.159 293.608 369.16H293.598Z" fill="white"/>
<path d="M275.436 368.163C275.63 368.169 275.823 368.133 276.002 368.058C276.14 368.002 276.263 367.914 276.359 367.801C276.456 367.688 276.524 367.553 276.557 367.407C276.584 367.319 276.587 367.225 276.567 367.135C276.547 367.045 276.504 366.962 276.442 366.893C275.74 366.043 272.061 366.295 271.642 366.326C271.603 366.328 271.565 366.342 271.535 366.366C271.505 366.391 271.483 366.425 271.474 366.463C271.466 366.501 271.47 366.54 271.485 366.576C271.5 366.611 271.525 366.642 271.558 366.662C272.728 367.435 274.051 367.946 275.436 368.163ZM273.214 366.631C274.503 366.631 275.855 366.757 276.159 367.124C276.177 367.152 276.186 367.185 276.186 367.218C276.186 367.252 276.177 367.285 276.159 367.313C276.141 367.404 276.102 367.489 276.043 367.56C275.984 367.632 275.909 367.687 275.824 367.722C275.237 367.964 273.916 367.565 272.25 366.673L273.214 366.631Z" fill="white"/>
<path d="M271.653 366.694C272.701 366.694 275.059 365.885 275.237 365.046C275.237 364.836 275.237 364.542 274.734 364.301C272.931 363.451 271.537 366.305 271.474 366.4C271.462 366.43 271.455 366.462 271.455 366.494C271.455 366.527 271.462 366.559 271.474 366.589C271.492 366.621 271.517 366.648 271.549 366.666C271.58 366.685 271.616 366.694 271.653 366.694ZM274.074 364.521C274.251 364.519 274.427 364.559 274.587 364.637C274.807 364.742 274.912 364.857 274.891 364.962C274.786 365.455 273.088 366.148 271.978 366.295C272.313 365.728 273.12 364.521 274.074 364.521Z" fill="white"/>
<path d="M276.044 168.318L283.736 166.964L279.764 175.938C279.764 175.938 272.711 175.938 273.026 172.243L276.044 168.318Z" fill="#E4897B"/>
<path d="M289.552 171.477L285.916 178.719L279.806 175.938L283.778 166.964L289.552 171.477Z" fill="#E4897B"/>
<path d="M267.566 350.175L279.167 361.111L282.908 357.091L269.63 344.98L267.566 350.175Z" fill="#407BFF"/>
<path opacity="0.6" d="M267.566 350.175L279.167 361.111L282.908 357.091L269.63 344.98L267.566 350.175Z" fill="white"/>
<path d="M280.435 361.163H295.809L296.658 355.748L279.691 356.598L280.435 361.163Z" fill="#407BFF"/>
<path opacity="0.6" d="M280.435 361.163H295.809L296.658 355.748L279.691 356.598L280.435 361.163Z" fill="white"/>
<path d="M272.491 106.566C265.155 107.615 257.641 133.139 257.641 133.139L273.361 141.871C273.361 141.871 279.743 129.739 282.793 120.734C285.989 111.299 280.341 105.411 272.491 106.566Z" fill="#407BFF"/>
<path opacity="0.7" d="M272.491 106.566C265.155 107.615 257.641 133.139 257.641 133.139L273.361 141.871C273.361 141.871 279.743 129.739 282.793 120.734C285.989 111.299 280.341 105.411 272.491 106.566Z" fill="white"/>
<path opacity="0.2" d="M298.869 109.515L302.013 112.863L300.473 116.095L297.968 116.211L295.83 113.125L298.869 109.515Z" fill="black"/>
<path d="M300.2 115.518C300.2 115.518 306.163 140.255 306.394 145.397C306.719 152.471 303.763 164.55 303.763 164.55C303.763 164.55 299.571 154.507 298.712 145.177C297.853 135.847 298.492 120.755 298.104 115.518H300.2Z" fill="#407BFF"/>
<path opacity="0.2" d="M300.2 115.518C300.2 115.518 306.163 140.255 306.394 145.397C306.719 152.471 303.763 164.55 303.763 164.55C303.763 164.55 299.571 154.507 298.712 145.177C297.853 135.847 298.492 120.755 298.104 115.518H300.2Z" fill="black"/>
<path d="M298.869 109.515C297.675 111.451 296.983 113.655 296.857 115.927C296.857 115.927 283.778 111.31 284.396 104.54C284.396 104.54 286.251 103.438 287.425 102.546C287.425 102.546 287.865 106.807 298.869 109.515Z" fill="#407BFF"/>
<path opacity="0.6" d="M298.869 109.515C297.675 111.451 296.983 113.655 296.857 115.927C296.857 115.927 283.778 111.31 284.396 104.54C284.396 104.54 286.251 103.438 287.425 102.546C287.425 102.546 287.865 106.807 298.869 109.515Z" fill="white"/>
<path d="M298.869 109.515C300.071 111.348 300.937 113.381 301.426 115.518C301.426 115.518 307.348 111.509 305.566 104.824C304.481 104.386 303.363 104.035 302.223 103.774C302.223 103.774 302.998 108.098 298.869 109.515Z" fill="#407BFF"/>
<path opacity="0.6" d="M298.869 109.515C300.071 111.348 300.937 113.381 301.426 115.518C301.426 115.518 307.348 111.509 305.566 104.824C304.481 104.386 303.363 104.035 302.223 103.774C302.223 103.774 302.998 108.098 298.869 109.515Z" fill="white"/>
<path d="M180.72 460.494C180.72 462.132 179.81 463.198 177.782 463.198H174.74V457.868H177.782C179.81 457.868 180.72 458.882 180.72 460.494ZM171.1 454.852V473H174.74V465.928H176.456L180.46 473H184.672L180.33 465.642C183.242 464.862 184.464 462.626 184.464 460.416C184.464 457.374 182.28 454.852 177.912 454.852H171.1ZM193.944 461.352C195.816 461.352 197.324 462.548 197.376 464.446H190.538C190.824 462.47 192.202 461.352 193.944 461.352ZM200.782 468.476H196.856C196.388 469.438 195.53 470.218 193.97 470.218C192.15 470.218 190.694 469.022 190.512 466.89H201.042C201.12 466.422 201.146 465.954 201.146 465.486C201.146 461.196 198.208 458.362 194.048 458.362C189.784 458.362 186.82 461.248 186.82 465.798C186.82 470.322 189.862 473.234 194.048 473.234C197.61 473.234 200.002 471.128 200.782 468.476ZM202.867 465.798C202.867 470.322 205.831 473.234 209.991 473.234C213.579 473.234 215.997 471.206 216.777 468.138H212.851C212.409 469.438 211.473 470.114 209.965 470.114C207.937 470.114 206.585 468.606 206.585 465.798C206.585 462.99 207.937 461.456 209.965 461.456C211.473 461.456 212.435 462.236 212.851 463.458H216.777C215.997 460.234 213.579 458.362 209.991 458.362C205.831 458.362 202.867 461.274 202.867 465.798ZM225.631 461.352C227.503 461.352 229.011 462.548 229.063 464.446H222.225C222.511 462.47 223.889 461.352 225.631 461.352ZM232.469 468.476H228.543C228.075 469.438 227.217 470.218 225.657 470.218C223.837 470.218 222.381 469.022 222.199 466.89H232.729C232.807 466.422 232.833 465.954 232.833 465.486C232.833 461.196 229.895 458.362 225.735 458.362C221.471 458.362 218.507 461.248 218.507 465.798C218.507 470.322 221.549 473.234 225.735 473.234C229.297 473.234 231.689 471.128 232.469 468.476ZM235.49 473H239.13V458.596H235.49V473ZM237.336 456.88C238.61 456.88 239.572 455.944 239.572 454.748C239.572 453.552 238.61 452.616 237.336 452.616C236.036 452.616 235.1 453.552 235.1 454.748C235.1 455.944 236.036 456.88 237.336 456.88ZM241.193 458.596L246.497 473H250.917L256.247 458.596H252.373L248.733 469.646L245.093 458.596H241.193ZM264.479 461.352C266.351 461.352 267.859 462.548 267.911 464.446H261.073C261.359 462.47 262.737 461.352 264.479 461.352ZM271.317 468.476H267.391C266.923 469.438 266.065 470.218 264.505 470.218C262.685 470.218 261.229 469.022 261.047 466.89H271.577C271.655 466.422 271.681 465.954 271.681 465.486C271.681 461.196 268.743 458.362 264.583 458.362C260.319 458.362 257.355 461.248 257.355 465.798C257.355 470.322 260.397 473.234 264.583 473.234C268.145 473.234 270.537 471.128 271.317 468.476ZM284.173 460.676V458.596H280.533V479.864H284.173V470.946C285.057 472.116 286.669 473.234 288.931 473.234C292.623 473.234 295.509 470.244 295.509 465.746C295.509 461.248 292.623 458.362 288.931 458.362C286.695 458.362 285.031 459.454 284.173 460.676ZM291.791 465.746C291.791 468.476 289.945 470.036 287.969 470.036C286.019 470.036 284.173 468.528 284.173 465.798C284.173 463.068 286.019 461.56 287.969 461.56C289.945 461.56 291.791 463.016 291.791 465.746ZM297.218 465.746C297.218 470.244 300.13 473.234 303.77 473.234C306.058 473.234 307.696 472.142 308.554 470.894V473H312.22V458.596H308.554V460.65C307.696 459.454 306.11 458.362 303.796 458.362C300.13 458.362 297.218 461.248 297.218 465.746ZM308.554 465.798C308.554 468.528 306.734 470.036 304.732 470.036C302.782 470.036 300.936 468.476 300.936 465.746C300.936 463.016 302.782 461.56 304.732 461.56C306.734 461.56 308.554 463.068 308.554 465.798ZM321.911 468.658L318.193 458.596H314.111L319.883 472.636L316.763 479.812H320.637L329.555 458.596H325.681L321.911 468.658ZM351.668 473H355.308V464.55C355.308 460.572 352.864 458.388 349.406 458.388C347.3 458.388 345.402 459.506 344.466 461.144C343.478 459.35 341.632 458.388 339.396 458.388C337.602 458.388 336.068 459.142 335.158 460.338V458.596H331.518V473H335.158V465.044C335.158 462.756 336.432 461.56 338.408 461.56C340.332 461.56 341.606 462.756 341.606 465.044V473H345.246V465.044C345.246 462.756 346.52 461.56 348.47 461.56C350.394 461.56 351.668 462.756 351.668 465.044V473ZM364.95 461.352C366.822 461.352 368.33 462.548 368.382 464.446H361.544C361.83 462.47 363.208 461.352 364.95 461.352ZM371.788 468.476H367.862C367.394 469.438 366.536 470.218 364.976 470.218C363.156 470.218 361.7 469.022 361.518 466.89H372.048C372.126 466.422 372.152 465.954 372.152 465.486C372.152 461.196 369.214 458.362 365.054 458.362C360.79 458.362 357.826 461.248 357.826 465.798C357.826 470.322 360.868 473.234 365.054 473.234C368.616 473.234 371.008 471.128 371.788 468.476ZM384.897 473H388.537V464.55C388.537 460.572 386.145 458.388 382.791 458.388C380.945 458.388 379.385 459.168 378.449 460.39V458.596H374.809V473H378.449V465.044C378.449 462.73 379.723 461.482 381.699 461.482C383.623 461.482 384.897 462.73 384.897 465.044V473ZM392.57 468.528C392.57 471.83 394.416 473 397.172 473H399.46V469.932H397.77C396.626 469.932 396.236 469.516 396.236 468.554V461.586H399.46V458.596H396.236V455.034H392.57V458.596H390.854V461.586H392.57V468.528ZM413.258 468.892C413.154 463.614 405.172 465.252 405.172 462.626C405.172 461.794 405.874 461.248 407.226 461.248C408.656 461.248 409.54 462.002 409.644 463.12H413.128C412.92 460.26 410.814 458.362 407.33 458.362C403.768 458.362 401.636 460.286 401.636 462.678C401.636 467.956 409.774 466.318 409.774 468.892C409.774 469.724 408.994 470.374 407.564 470.374C406.108 470.374 405.094 469.542 404.964 468.45H401.298C401.454 471.128 403.976 473.234 407.59 473.234C411.1 473.234 413.258 471.362 413.258 468.892ZM422.831 473H426.523V461.586H429.045V458.596H426.523V457.998C426.523 456.386 427.121 455.814 428.889 455.866V452.798C424.833 452.694 422.831 454.332 422.831 457.868V458.596H421.193V461.586H422.831V473ZM435.044 465.824C435.044 463.042 436.344 462.21 438.502 462.21H439.464V458.388C437.462 458.388 435.954 459.35 435.044 460.832V458.596H431.404V473H435.044V465.824ZM455.826 465.798C455.826 461.248 452.576 458.362 448.416 458.362C444.256 458.362 441.006 461.248 441.006 465.798C441.006 470.322 444.152 473.234 448.312 473.234C452.498 473.234 455.826 470.322 455.826 465.798ZM444.698 465.798C444.698 462.912 446.44 461.534 448.364 461.534C450.288 461.534 452.082 462.912 452.082 465.798C452.082 468.658 450.236 470.062 448.312 470.062C446.362 470.062 444.698 468.658 444.698 465.798ZM478.646 473H482.286V464.55C482.286 460.572 479.842 458.388 476.384 458.388C474.278 458.388 472.38 459.506 471.444 461.144C470.456 459.35 468.61 458.388 466.374 458.388C464.58 458.388 463.046 459.142 462.136 460.338V458.596H458.496V473H462.136V465.044C462.136 462.756 463.41 461.56 465.386 461.56C467.31 461.56 468.584 462.756 468.584 465.044V473H472.224V465.044C472.224 462.756 473.498 461.56 475.448 461.56C477.372 461.56 478.646 462.756 478.646 465.044V473ZM491 465.746C491 470.244 493.912 473.234 497.552 473.234C499.84 473.234 501.478 472.142 502.336 470.894V473H506.002V458.596H502.336V460.65C501.478 459.454 499.892 458.362 497.578 458.362C493.912 458.362 491 461.248 491 465.746ZM502.336 465.798C502.336 468.528 500.516 470.036 498.514 470.036C496.564 470.036 494.718 468.476 494.718 465.746C494.718 463.016 496.564 461.56 498.514 461.56C500.516 461.56 502.336 463.068 502.336 465.798ZM519.645 473H523.285V464.55C523.285 460.572 520.893 458.388 517.539 458.388C515.693 458.388 514.133 459.168 513.197 460.39V458.596H509.557V473H513.197V465.044C513.197 462.73 514.471 461.482 516.447 461.482C518.371 461.482 519.645 462.73 519.645 465.044V473ZM532.882 468.658L529.164 458.596H525.082L530.854 472.636L527.734 479.812H531.608L540.526 458.596H536.652L532.882 468.658ZM253.781 494.702V487.76H250.141V507H253.781V504.946C254.665 506.194 256.277 507.234 258.539 507.234C262.231 507.234 265.117 504.244 265.117 499.746C265.117 495.248 262.231 492.362 258.539 492.362C256.355 492.362 254.665 493.376 253.781 494.702ZM261.399 499.746C261.399 502.476 259.553 504.036 257.577 504.036C255.627 504.036 253.781 502.528 253.781 499.798C253.781 497.068 255.627 495.56 257.577 495.56C259.553 495.56 261.399 497.016 261.399 499.746ZM266.826 499.746C266.826 504.244 269.738 507.234 273.378 507.234C275.666 507.234 277.304 506.142 278.162 504.894V507H281.828V492.596H278.162V494.65C277.304 493.454 275.718 492.362 273.404 492.362C269.738 492.362 266.826 495.248 266.826 499.746ZM278.162 499.798C278.162 502.528 276.342 504.036 274.34 504.036C272.39 504.036 270.544 502.476 270.544 499.746C270.544 497.016 272.39 495.56 274.34 495.56C276.342 495.56 278.162 497.068 278.162 499.798ZM295.471 507H299.111V498.55C299.111 494.572 296.719 492.388 293.365 492.388C291.519 492.388 289.959 493.168 289.023 494.39V492.596H285.383V507H289.023V499.044C289.023 496.73 290.297 495.482 292.273 495.482C294.197 495.482 295.471 496.73 295.471 499.044V507ZM302.572 507H306.212V500.864L311.1 507H315.832L309.436 499.824L315.78 492.596H311.048L306.212 498.706V487.76H302.572V507ZM317.756 507H321.396V492.596H317.756V507ZM319.602 490.88C320.876 490.88 321.838 489.944 321.838 488.748C321.838 487.552 320.876 486.616 319.602 486.616C318.302 486.616 317.366 487.552 317.366 488.748C317.366 489.944 318.302 490.88 319.602 490.88ZM335.08 507H338.72V498.55C338.72 494.572 336.328 492.388 332.974 492.388C331.128 492.388 329.568 493.168 328.632 494.39V492.596H324.992V507H328.632V499.044C328.632 496.73 329.906 495.482 331.882 495.482C333.806 495.482 335.08 496.73 335.08 499.044V507ZM341.246 499.746C341.246 504.244 344.158 507.234 347.824 507.234C350.086 507.234 351.724 506.116 352.582 504.868V507.104C352.582 509.782 351.022 510.926 349.02 510.926C347.2 510.926 345.848 510.068 345.484 508.768H341.87C342.234 512.07 345.068 514.098 349.124 514.098C353.856 514.098 356.248 511.004 356.248 507.104V492.596H352.582V494.65C351.724 493.402 350.086 492.362 347.824 492.362C344.158 492.362 341.246 495.248 341.246 499.746ZM352.582 499.798C352.582 502.528 350.762 504.036 348.76 504.036C346.81 504.036 344.964 502.476 344.964 499.746C344.964 497.016 346.81 495.56 348.76 495.56C350.762 495.56 352.582 497.068 352.582 499.798ZM377.178 502.892C377.074 497.614 369.092 499.252 369.092 496.626C369.092 495.794 369.794 495.248 371.146 495.248C372.576 495.248 373.46 496.002 373.564 497.12H377.048C376.84 494.26 374.734 492.362 371.25 492.362C367.688 492.362 365.556 494.286 365.556 496.678C365.556 501.956 373.694 500.318 373.694 502.892C373.694 503.724 372.914 504.374 371.484 504.374C370.028 504.374 369.014 503.542 368.884 502.45H365.218C365.374 505.128 367.896 507.234 371.51 507.234C375.02 507.234 377.178 505.362 377.178 502.892ZM386.302 502.658L382.584 492.596H378.502L384.274 506.636L381.154 513.812H385.028L393.946 492.596H390.072L386.302 502.658ZM407.088 502.892C406.984 497.614 399.002 499.252 399.002 496.626C399.002 495.794 399.704 495.248 401.056 495.248C402.486 495.248 403.37 496.002 403.474 497.12H406.958C406.75 494.26 404.644 492.362 401.16 492.362C397.598 492.362 395.466 494.286 395.466 496.678C395.466 501.956 403.604 500.318 403.604 502.892C403.604 503.724 402.824 504.374 401.394 504.374C399.938 504.374 398.924 503.542 398.794 502.45H395.128C395.284 505.128 397.806 507.234 401.42 507.234C404.93 507.234 407.088 505.362 407.088 502.892ZM410.648 502.528C410.648 505.83 412.494 507 415.25 507H417.538V503.932H415.848C414.704 503.932 414.314 503.516 414.314 502.554V495.586H417.538V492.596H414.314V489.034H410.648V492.596H408.932V495.586H410.648V502.528ZM426.344 495.352C428.216 495.352 429.724 496.548 429.776 498.446H422.938C423.224 496.47 424.602 495.352 426.344 495.352ZM433.182 502.476H429.256C428.788 503.438 427.93 504.218 426.37 504.218C424.55 504.218 423.094 503.022 422.912 500.89H433.442C433.52 500.422 433.546 499.954 433.546 499.486C433.546 495.196 430.608 492.362 426.448 492.362C422.184 492.362 419.22 495.248 419.22 499.798C419.22 504.322 422.262 507.234 426.448 507.234C430.01 507.234 432.402 505.128 433.182 502.476ZM456.353 507H459.993V498.55C459.993 494.572 457.549 492.388 454.091 492.388C451.985 492.388 450.087 493.506 449.151 495.144C448.163 493.35 446.317 492.388 444.081 492.388C442.287 492.388 440.753 493.142 439.843 494.338V492.596H436.203V507H439.843V499.044C439.843 496.756 441.117 495.56 443.093 495.56C445.017 495.56 446.291 496.756 446.291 499.044V507H449.931V499.044C449.931 496.756 451.205 495.56 453.155 495.56C455.079 495.56 456.353 496.756 456.353 499.044V507Z" fill="#292731"/>
<path d="M171.024 551.416C171.024 554.76 173.472 557.096 176.592 557.096C179.008 557.096 180.928 555.896 181.76 553.752H180.016C179.408 555.08 178.224 555.832 176.592 555.832C174.256 555.832 172.512 554.136 172.512 551.416C172.512 548.68 174.256 546.984 176.592 546.984C178.224 546.984 179.408 547.736 180.016 549.08H181.76C180.928 546.92 179.008 545.704 176.592 545.704C173.472 545.704 171.024 548.072 171.024 551.416ZM192.247 552.6C192.247 549.832 190.311 548.088 187.815 548.088C185.335 548.088 183.383 549.832 183.383 552.6C183.383 555.384 185.271 557.144 187.751 557.144C190.247 557.144 192.247 555.384 192.247 552.6ZM184.871 552.6C184.871 550.392 186.263 549.352 187.799 549.352C189.303 549.352 190.759 550.392 190.759 552.6C190.759 554.824 189.271 555.864 187.751 555.864C186.231 555.864 184.871 554.824 184.871 552.6ZM200.578 557H202.018V551.832C202.018 549.32 200.466 548.072 198.434 548.072C197.25 548.072 196.194 548.568 195.618 549.48V548.232H194.162V557H195.618V552.152C195.618 550.264 196.642 549.336 198.13 549.336C199.602 549.336 200.578 550.248 200.578 552.04V557ZM210.812 557H212.252V551.832C212.252 549.32 210.7 548.072 208.668 548.072C207.484 548.072 206.428 548.568 205.852 549.48V548.232H204.396V557H205.852V552.152C205.852 550.264 206.876 549.336 208.364 549.336C209.836 549.336 210.812 550.248 210.812 552.04V557ZM218.358 549.32C219.862 549.32 221.142 550.264 221.126 551.976H215.59C215.75 550.264 216.934 549.32 218.358 549.32ZM222.454 554.296H220.886C220.566 555.24 219.734 555.912 218.422 555.912C216.934 555.912 215.686 554.936 215.574 553.16H222.582C222.614 552.856 222.63 552.6 222.63 552.28C222.63 549.88 220.966 548.088 218.422 548.088C215.862 548.088 214.086 549.832 214.086 552.6C214.086 555.384 215.926 557.144 218.422 557.144C220.598 557.144 222.006 555.896 222.454 554.296ZM224.008 552.6C224.008 555.384 225.784 557.144 228.28 557.144C230.456 557.144 231.88 555.928 232.328 554.184H230.76C230.44 555.288 229.576 555.912 228.28 555.912C226.68 555.912 225.496 554.776 225.496 552.6C225.496 550.456 226.68 549.32 228.28 549.32C229.576 549.32 230.456 549.992 230.76 551.048H232.328C231.88 549.208 230.456 548.088 228.28 548.088C225.784 548.088 224.008 549.848 224.008 552.6ZM234.591 554.6C234.591 556.36 235.471 557 237.023 557H238.335V555.768H237.263C236.367 555.768 236.047 555.464 236.047 554.6V549.432H238.335V548.232H236.047V546.024H234.591V548.232H233.455V549.432H234.591V554.6ZM247.693 555.336L244.941 548.232H243.325L246.861 556.904L245.133 561.128H246.637L251.917 548.232H250.413L247.693 555.336ZM261.7 552.6C261.7 549.832 259.764 548.088 257.268 548.088C254.788 548.088 252.836 549.832 252.836 552.6C252.836 555.384 254.724 557.144 257.204 557.144C259.7 557.144 261.7 555.384 261.7 552.6ZM254.324 552.6C254.324 550.392 255.716 549.352 257.252 549.352C258.756 549.352 260.212 550.392 260.212 552.6C260.212 554.824 258.724 555.864 257.204 555.864C255.684 555.864 254.324 554.824 254.324 552.6ZM271.391 548.232H269.935V553.048C269.935 554.936 268.927 555.864 267.423 555.864C265.951 555.864 264.975 554.952 264.975 553.176V548.232H263.535V553.368C263.535 555.88 265.119 557.128 267.135 557.128C268.303 557.128 269.375 556.616 269.935 555.704V557H271.391V548.232ZM275.305 552.232C275.305 550.2 276.361 549.576 277.753 549.576H278.137V548.072C276.745 548.072 275.801 548.68 275.305 549.656V548.232H273.849V557H275.305V552.232ZM285.54 549.864V545.16H284.084V557H285.54V555.384C286.084 556.344 287.22 557.144 288.82 557.144C291.172 557.144 292.98 555.304 292.98 552.584C292.98 549.848 291.188 548.088 288.82 548.088C287.268 548.088 286.1 548.888 285.54 549.864ZM291.492 552.584C291.492 554.648 290.132 555.864 288.516 555.864C286.932 555.864 285.54 554.664 285.54 552.6C285.54 550.568 286.932 549.352 288.516 549.352C290.132 549.352 291.492 550.52 291.492 552.584ZM294.352 552.584C294.352 555.304 296.16 557.144 298.496 557.144C300.112 557.144 301.248 556.312 301.776 555.368V557H303.248V548.232H301.776V549.832C301.264 548.92 300.144 548.088 298.512 548.088C296.16 548.088 294.352 549.848 294.352 552.584ZM301.776 552.6C301.776 554.664 300.4 555.864 298.8 555.864C297.2 555.864 295.84 554.648 295.84 552.584C295.84 550.52 297.2 549.352 298.8 549.352C300.4 549.352 301.776 550.568 301.776 552.6ZM312.125 557H313.565V551.832C313.565 549.32 312.013 548.072 309.981 548.072C308.797 548.072 307.741 548.568 307.165 549.48V548.232H305.709V557H307.165V552.152C307.165 550.264 308.189 549.336 309.677 549.336C311.149 549.336 312.125 550.248 312.125 552.04V557ZM315.943 557H317.399V553.128L320.839 557H322.823L318.679 552.6L322.807 548.232H320.775L317.399 552.12V545.16H315.943V557ZM327.899 552.6C327.899 555.384 329.675 557.144 332.171 557.144C334.347 557.144 335.771 555.928 336.219 554.184H334.651C334.331 555.288 333.467 555.912 332.171 555.912C330.571 555.912 329.387 554.776 329.387 552.6C329.387 550.456 330.571 549.32 332.171 549.32C333.467 549.32 334.347 549.992 334.651 551.048H336.219C335.771 549.208 334.347 548.088 332.171 548.088C329.675 548.088 327.899 549.848 327.899 552.6ZM337.618 552.584C337.618 555.304 339.426 557.144 341.762 557.144C343.378 557.144 344.514 556.312 345.042 555.368V557H346.514V548.232H345.042V549.832C344.53 548.92 343.41 548.088 341.778 548.088C339.426 548.088 337.618 549.848 337.618 552.584ZM345.042 552.6C345.042 554.664 343.666 555.864 342.066 555.864C340.466 555.864 339.106 554.648 339.106 552.584C339.106 550.52 340.466 549.352 342.066 549.352C343.666 549.352 345.042 550.568 345.042 552.6ZM350.43 552.232C350.43 550.2 351.486 549.576 352.878 549.576H353.262V548.072C351.87 548.072 350.926 548.68 350.43 549.656V548.232H348.974V557H350.43V552.232ZM354.399 552.584C354.399 555.304 356.207 557.144 358.559 557.144C360.159 557.144 361.295 556.328 361.823 555.352V557H363.295V545.16H361.823V549.8C361.215 548.792 359.951 548.088 358.575 548.088C356.207 548.088 354.399 549.848 354.399 552.584ZM361.823 552.6C361.823 554.664 360.447 555.864 358.847 555.864C357.247 555.864 355.887 554.648 355.887 552.584C355.887 550.52 357.247 549.352 358.847 549.352C360.447 549.352 361.823 550.568 361.823 552.6ZM364.491 559.288H365.467L367.259 554.984H365.659L364.491 559.288ZM372.649 552.584C372.649 555.304 374.457 557.144 376.793 557.144C378.409 557.144 379.545 556.312 380.073 555.368V557H381.545V548.232H380.073V549.832C379.561 548.92 378.441 548.088 376.809 548.088C374.457 548.088 372.649 549.848 372.649 552.584ZM380.073 552.6C380.073 554.664 378.697 555.864 377.097 555.864C375.497 555.864 374.137 554.648 374.137 552.584C374.137 550.52 375.497 549.352 377.097 549.352C378.697 549.352 380.073 550.568 380.073 552.6ZM390.421 557H391.861V551.832C391.861 549.32 390.309 548.072 388.277 548.072C387.093 548.072 386.037 548.568 385.461 549.48V548.232H384.005V557H385.461V552.152C385.461 550.264 386.485 549.336 387.973 549.336C389.445 549.336 390.421 550.248 390.421 552.04V557ZM393.696 552.584C393.696 555.304 395.504 557.144 397.856 557.144C399.456 557.144 400.592 556.328 401.12 555.352V557H402.592V545.16H401.12V549.8C400.512 548.792 399.248 548.088 397.872 548.088C395.504 548.088 393.696 549.848 393.696 552.584ZM401.12 552.6C401.12 554.664 399.744 555.864 398.144 555.864C396.544 555.864 395.184 554.648 395.184 552.584C395.184 550.52 396.544 549.352 398.144 549.352C399.744 549.352 401.12 550.568 401.12 552.6ZM408.774 552.6C408.774 555.384 410.55 557.144 413.046 557.144C415.222 557.144 416.646 555.928 417.094 554.184H415.526C415.206 555.288 414.342 555.912 413.046 555.912C411.446 555.912 410.262 554.776 410.262 552.6C410.262 550.456 411.446 549.32 413.046 549.32C414.342 549.32 415.222 549.992 415.526 551.048H417.094C416.646 549.208 415.222 548.088 413.046 548.088C410.55 548.088 408.774 549.848 408.774 552.6ZM420.493 552.232C420.493 550.2 421.549 549.576 422.941 549.576H423.325V548.072C421.933 548.072 420.989 548.68 420.493 549.656V548.232H419.037V557H420.493V552.232ZM428.733 549.32C430.237 549.32 431.517 550.264 431.501 551.976H425.965C426.125 550.264 427.309 549.32 428.733 549.32ZM432.829 554.296H431.261C430.941 555.24 430.109 555.912 428.797 555.912C427.309 555.912 426.061 554.936 425.949 553.16H432.957C432.989 552.856 433.005 552.6 433.005 552.28C433.005 549.88 431.341 548.088 428.797 548.088C426.237 548.088 424.461 549.832 424.461 552.6C424.461 555.384 426.301 557.144 428.797 557.144C430.973 557.144 432.381 555.896 432.829 554.296ZM434.383 552.584C434.383 555.304 436.191 557.144 438.527 557.144C440.143 557.144 441.279 556.312 441.807 555.368V557H443.279V548.232H441.807V549.832C441.295 548.92 440.175 548.088 438.543 548.088C436.191 548.088 434.383 549.848 434.383 552.584ZM441.807 552.6C441.807 554.664 440.431 555.864 438.831 555.864C437.231 555.864 435.871 554.648 435.871 552.584C435.871 550.52 437.231 549.352 438.831 549.352C440.431 549.352 441.807 550.568 441.807 552.6ZM446.06 554.6C446.06 556.36 446.94 557 448.492 557H449.804V555.768H448.732C447.836 555.768 447.516 555.464 447.516 554.6V549.432H449.804V548.232H447.516V546.024H446.06V548.232H444.924V549.432H446.06V554.6ZM455.296 549.32C456.8 549.32 458.08 550.264 458.064 551.976H452.528C452.688 550.264 453.872 549.32 455.296 549.32ZM459.392 554.296H457.824C457.504 555.24 456.672 555.912 455.36 555.912C453.872 555.912 452.624 554.936 452.512 553.16H459.52C459.552 552.856 459.568 552.6 459.568 552.28C459.568 549.88 457.904 548.088 455.36 548.088C452.8 548.088 451.024 549.832 451.024 552.6C451.024 555.384 452.864 557.144 455.36 557.144C457.536 557.144 458.944 555.896 459.392 554.296ZM465.211 552.584C465.211 555.304 467.019 557.144 469.355 557.144C470.971 557.144 472.107 556.312 472.635 555.368V557H474.107V548.232H472.635V549.832C472.123 548.92 471.003 548.088 469.371 548.088C467.019 548.088 465.211 549.848 465.211 552.584ZM472.635 552.6C472.635 554.664 471.259 555.864 469.659 555.864C468.059 555.864 466.699 554.648 466.699 552.584C466.699 550.52 468.059 549.352 469.659 549.352C471.259 549.352 472.635 550.568 472.635 552.6ZM476.024 552.6C476.024 555.384 477.8 557.144 480.296 557.144C482.472 557.144 483.896 555.928 484.344 554.184H482.776C482.456 555.288 481.592 555.912 480.296 555.912C478.696 555.912 477.512 554.776 477.512 552.6C477.512 550.456 478.696 549.32 480.296 549.32C481.592 549.32 482.472 549.992 482.776 551.048H484.344C483.896 549.208 482.472 548.088 480.296 548.088C477.8 548.088 476.024 549.848 476.024 552.6ZM485.743 552.6C485.743 555.384 487.519 557.144 490.015 557.144C492.191 557.144 493.615 555.928 494.063 554.184H492.495C492.175 555.288 491.311 555.912 490.015 555.912C488.415 555.912 487.231 554.776 487.231 552.6C487.231 550.456 488.415 549.32 490.015 549.32C491.311 549.32 492.191 549.992 492.495 551.048H494.063C493.615 549.208 492.191 548.088 490.015 548.088C487.519 548.088 485.743 549.848 485.743 552.6ZM504.325 552.6C504.325 549.832 502.389 548.088 499.893 548.088C497.413 548.088 495.461 549.832 495.461 552.6C495.461 555.384 497.349 557.144 499.829 557.144C502.325 557.144 504.325 555.384 504.325 552.6ZM496.949 552.6C496.949 550.392 498.341 549.352 499.877 549.352C501.381 549.352 502.837 550.392 502.837 552.6C502.837 554.824 501.349 555.864 499.829 555.864C498.309 555.864 496.949 554.824 496.949 552.6ZM514.016 548.232H512.56V553.048C512.56 554.936 511.552 555.864 510.048 555.864C508.576 555.864 507.6 554.952 507.6 553.176V548.232H506.16V553.368C506.16 555.88 507.744 557.128 509.76 557.128C510.928 557.128 512 556.616 512.56 555.704V557H514.016V548.232ZM522.89 557H524.33V551.832C524.33 549.32 522.778 548.072 520.746 548.072C519.562 548.072 518.506 548.568 517.93 549.48V548.232H516.474V557H517.93V552.152C517.93 550.264 518.954 549.336 520.442 549.336C521.914 549.336 522.89 550.248 522.89 552.04V557ZM527.029 554.6C527.029 556.36 527.909 557 529.461 557H530.773V555.768H529.701C528.805 555.768 528.485 555.464 528.485 554.6V549.432H530.773V548.232H528.485V546.024H527.029V548.232H525.893V549.432H527.029V554.6ZM538.841 554.616C538.777 551.48 533.689 552.616 533.689 550.536C533.689 549.832 534.329 549.32 535.401 549.32C536.569 549.32 537.241 549.96 537.305 550.84H538.761C538.665 549.128 537.385 548.088 535.449 548.088C533.497 548.088 532.233 549.192 532.233 550.536C532.233 553.8 537.417 552.664 537.417 554.616C537.417 555.336 536.777 555.912 535.625 555.912C534.393 555.912 533.641 555.272 533.561 554.424H532.057C532.153 556.024 533.593 557.144 535.641 557.144C537.577 557.144 538.841 556.056 538.841 554.616ZM258.474 584H259.93V575.232H258.474V584ZM259.226 573.808C259.754 573.808 260.186 573.376 260.186 572.816C260.186 572.256 259.754 571.824 259.226 571.824C258.666 571.824 258.234 572.256 258.234 572.816C258.234 573.376 258.666 573.808 259.226 573.808ZM268.828 584H270.268V578.832C270.268 576.32 268.716 575.072 266.684 575.072C265.5 575.072 264.444 575.568 263.868 576.48V575.232H262.412V584H263.868V579.152C263.868 577.264 264.892 576.336 266.38 576.336C267.852 576.336 268.828 577.248 268.828 579.04V584ZM277.232 581.6C277.232 583.36 278.112 584 279.664 584H280.976V582.768H279.904C279.008 582.768 278.688 582.464 278.688 581.6V576.432H280.976V575.232H278.688V573.024H277.232V575.232H276.096V576.432H277.232V581.6ZM282.74 584H284.196V579.152C284.196 577.264 285.22 576.336 286.708 576.336C288.18 576.336 289.156 577.248 289.156 579.04V584H290.596V578.832C290.596 576.32 289.044 575.072 287.092 575.072C285.86 575.072 284.772 575.568 284.196 576.496V572.16H282.74V584ZM296.702 576.32C298.206 576.32 299.486 577.264 299.47 578.976H293.934C294.094 577.264 295.278 576.32 296.702 576.32ZM300.798 581.296H299.23C298.91 582.24 298.078 582.912 296.766 582.912C295.278 582.912 294.03 581.936 293.918 580.16H300.926C300.958 579.856 300.974 579.6 300.974 579.28C300.974 576.88 299.31 575.088 296.766 575.088C294.206 575.088 292.43 576.832 292.43 579.6C292.43 582.384 294.27 584.144 296.766 584.144C298.942 584.144 300.35 582.896 300.798 581.296ZM313.466 581.616C313.402 578.48 308.314 579.616 308.314 577.536C308.314 576.832 308.954 576.32 310.026 576.32C311.194 576.32 311.866 576.96 311.93 577.84H313.386C313.29 576.128 312.01 575.088 310.074 575.088C308.122 575.088 306.858 576.192 306.858 577.536C306.858 580.8 312.042 579.664 312.042 581.616C312.042 582.336 311.402 582.912 310.25 582.912C309.018 582.912 308.266 582.272 308.186 581.424H306.682C306.778 583.024 308.218 584.144 310.266 584.144C312.202 584.144 313.466 583.056 313.466 581.616ZM319.249 576.32C320.753 576.32 322.033 577.264 322.017 578.976H316.481C316.641 577.264 317.825 576.32 319.249 576.32ZM323.345 581.296H321.777C321.457 582.24 320.625 582.912 319.313 582.912C317.825 582.912 316.577 581.936 316.465 580.16H323.473C323.505 579.856 323.521 579.6 323.521 579.28C323.521 576.88 321.857 575.088 319.313 575.088C316.753 575.088 314.977 576.832 314.977 579.6C314.977 582.384 316.817 584.144 319.313 584.144C321.489 584.144 322.897 582.896 323.345 581.296ZM325.443 584H326.899V572.16H325.443V584ZM333.108 576.32C334.612 576.32 335.892 577.264 335.876 578.976H330.34C330.5 577.264 331.684 576.32 333.108 576.32ZM337.204 581.296H335.636C335.316 582.24 334.484 582.912 333.172 582.912C331.684 582.912 330.436 581.936 330.324 580.16H337.332C337.364 579.856 337.38 579.6 337.38 579.28C337.38 576.88 335.716 575.088 333.172 575.088C330.612 575.088 328.836 576.832 328.836 579.6C328.836 582.384 330.676 584.144 333.172 584.144C335.348 584.144 336.756 582.896 337.204 581.296ZM338.758 579.6C338.758 582.384 340.534 584.144 343.03 584.144C345.206 584.144 346.63 582.928 347.078 581.184H345.51C345.19 582.288 344.326 582.912 343.03 582.912C341.43 582.912 340.246 581.776 340.246 579.6C340.246 577.456 341.43 576.32 343.03 576.32C344.326 576.32 345.206 576.992 345.51 578.048H347.078C346.63 576.208 345.206 575.088 343.03 575.088C340.534 575.088 338.758 576.848 338.758 579.6ZM349.341 581.6C349.341 583.36 350.221 584 351.773 584H353.085V582.768H352.013C351.117 582.768 350.797 582.464 350.797 581.6V576.432H353.085V575.232H350.797V573.024H349.341V575.232H348.205V576.432H349.341V581.6ZM358.577 576.32C360.081 576.32 361.361 577.264 361.345 578.976H355.809C355.969 577.264 357.153 576.32 358.577 576.32ZM362.673 581.296H361.105C360.785 582.24 359.953 582.912 358.641 582.912C357.153 582.912 355.905 581.936 355.793 580.16H362.801C362.833 579.856 362.849 579.6 362.849 579.28C362.849 576.88 361.185 575.088 358.641 575.088C356.081 575.088 354.305 576.832 354.305 579.6C354.305 582.384 356.145 584.144 358.641 584.144C360.817 584.144 362.225 582.896 362.673 581.296ZM364.227 579.584C364.227 582.304 366.035 584.144 368.387 584.144C369.987 584.144 371.123 583.328 371.651 582.352V584H373.123V572.16H371.651V576.8C371.043 575.792 369.779 575.088 368.403 575.088C366.035 575.088 364.227 576.848 364.227 579.584ZM371.651 579.6C371.651 581.664 370.275 582.864 368.675 582.864C367.075 582.864 365.715 581.648 365.715 579.584C365.715 577.52 367.075 576.352 368.675 576.352C370.275 576.352 371.651 577.568 371.651 579.6ZM379.305 579.6C379.305 582.384 381.081 584.144 383.577 584.144C385.753 584.144 387.177 582.928 387.625 581.184H386.057C385.737 582.288 384.873 582.912 383.577 582.912C381.977 582.912 380.793 581.776 380.793 579.6C380.793 577.456 381.977 576.32 383.577 576.32C384.873 576.32 385.753 576.992 386.057 578.048H387.625C387.177 576.208 385.753 575.088 383.577 575.088C381.081 575.088 379.305 576.848 379.305 579.6ZM397.344 575.232H395.888V580.048C395.888 581.936 394.88 582.864 393.376 582.864C391.904 582.864 390.928 581.952 390.928 580.176V575.232H389.488V580.368C389.488 582.88 391.072 584.128 393.088 584.128C394.256 584.128 395.328 583.616 395.888 582.704V584H397.344V575.232ZM401.258 579.232C401.258 577.2 402.314 576.576 403.706 576.576H404.09V575.072C402.698 575.072 401.754 575.68 401.258 576.656V575.232H399.802V584H401.258V579.232ZM407.227 579.232C407.227 577.2 408.283 576.576 409.675 576.576H410.059V575.072C408.667 575.072 407.723 575.68 407.227 576.656V575.232H405.771V584H407.227V579.232ZM415.468 576.32C416.972 576.32 418.252 577.264 418.236 578.976H412.7C412.86 577.264 414.044 576.32 415.468 576.32ZM419.564 581.296H417.996C417.676 582.24 416.844 582.912 415.532 582.912C414.044 582.912 412.796 581.936 412.684 580.16H419.692C419.724 579.856 419.74 579.6 419.74 579.28C419.74 576.88 418.076 575.088 415.532 575.088C412.972 575.088 411.196 576.832 411.196 579.6C411.196 582.384 413.036 584.144 415.532 584.144C417.708 584.144 419.116 582.896 419.564 581.296ZM428.078 584H429.518V578.832C429.518 576.32 427.966 575.072 425.934 575.072C424.75 575.072 423.694 575.568 423.118 576.48V575.232H421.662V584H423.118V579.152C423.118 577.264 424.142 576.336 425.63 576.336C427.102 576.336 428.078 577.248 428.078 579.04V584ZM431.352 579.6C431.352 582.384 433.128 584.144 435.624 584.144C437.8 584.144 439.224 582.928 439.672 581.184H438.104C437.784 582.288 436.92 582.912 435.624 582.912C434.024 582.912 432.84 581.776 432.84 579.6C432.84 577.456 434.024 576.32 435.624 576.32C436.92 576.32 437.8 576.992 438.104 578.048H439.672C439.224 576.208 437.8 575.088 435.624 575.088C433.128 575.088 431.352 576.848 431.352 579.6ZM444.943 582.336L442.191 575.232H440.575L444.111 583.904L442.383 588.128H443.887L449.167 575.232H447.663L444.943 582.336ZM452.054 583.104C452.054 582.544 451.622 582.112 451.094 582.112C450.534 582.112 450.102 582.544 450.102 583.104C450.102 583.664 450.534 584.096 451.094 584.096C451.622 584.096 452.054 583.664 452.054 583.104Z" fill="#455360"/>
<circle cx="335" cy="654" r="6" fill="#4C70FF"/>
<circle opacity="0.3" cx="355" cy="654" r="6" fill="#4C70FF"/>
<circle opacity="0.3" cx="375" cy="654" r="6" fill="#4C70FF"/>
</svg>
